# xmcd
#
# Track frame offsets:
#	150
#	16560
#	31291
#	46540
#	64952
#	70499
#	75730
#	81843
#	95584
#	113409
#	126820
#	137743
#	153024
#	166918
#	183072
#	188851
#	194188
#	203569
#	218853
#	225245
#	230880
#	237250
#
# Disc length: 3298 seconds
#
# Revision: 0
# Processed by: cddbd v1.5.1PL0 Copyright (c) Steve Scherf et al.
# Submitted via: audiograbber 1.82.02
#
DISCID=1c0ce016
DTITLE=JJ Stephens - Jy Is Die Rots
DYEAR=2004
DGENRE=Folk
TTITLE0=Jy Is Die Rots
TTITLE1=Blue Train
TTITLE2=Aba Heidschi Bumbeidschi
TTITLE3=Bella Italia
TTITLE4=Afrikaanse Medley: 01 Transkaroo
TTITLE5=Afrikaanse Medley: 02 Sien Jou Weer
TTITLE6=Afrikaanse Medley: 03 Groen Koringlande
TTITLE7=Die Seewind Bring Heimwee
TTITLE8=Ek Kan Droom Van My Sonskip
TTITLE9=Green Door
TTITLE10=Sea Of Heartbreak
TTITLE11=Buy Me a Rose
TTITLE12=Running Bear
TTITLE13=Lonely Is The Night
TTITLE14=Country Medley: 01 Distant Drums
TTITLE15=Country Medley: 02 Please Release Me
TTITLE16=Country Medley: 03 Baby Blue
TTITLE17=Love On The Rocks
TTITLE18=Oldie Medley: 01 Radio Dancing
TTITLE19=Oldie Medley: 02 Save The Last Dance
TTITLE20=Oldie Medley: 03 Blue Spanish Eyes
TTITLE21=King Of The Road
EXTD=
EXTT0=
EXTT1=
EXTT2=
EXTT3=
EXTT4=
EXTT5=
EXTT6=
EXTT7=
EXTT8=
EXTT9=
EXTT10=
EXTT11=
EXTT12=
EXTT13=
EXTT14=
EXTT15=
EXTT16=
EXTT17=
EXTT18=
EXTT19=
EXTT20=
EXTT21=
PLAYORDER=
